HIERARCHY
ROOT Hips
{
	OFFSET 0.000000 0.000000 0.000000
	CHANNELS 6 Xposition Yposition Zposition Zrotation Yrotation Xrotation 
	JOINT LHipJoint
	{
		OFFSET 0.000000 0.000000 0.000000
		CHANNELS 3 Zrotation Yrotation Xrotation
		JOINT LeftUpLeg
		{
			OFFSET 1.363060 -1.794630 0.839290
			CHANNELS 3 Zrotation Yrotation Xrotation
			JOINT LeftLeg
			{
				OFFSET 2.448110 -6.726130 0.000000
				CHANNELS 3 Zrotation Yrotation Xrotation
				JOINT LeftFoot
				{
					OFFSET 2.562200 -7.039590 0.000000
					CHANNELS 3 Zrotation Yrotation Xrotation
					JOINT LeftToeBase
					{
						OFFSET 0.157640 -0.433110 2.322550
						CHANNELS 3 Zrotation Yrotation Xrotation
						End Site
						{
							OFFSET 0.000000 0.000000 0.000000
						}
					}
				}
			}
		}
	}
	JOINT RHipJoint
	{
		OFFSET 0.000000 0.000000 0.000000
		CHANNELS 3 Zrotation Yrotation Xrotation
		JOINT RightUpLeg
		{
			OFFSET -1.305520 -1.794630 0.839290
			CHANNELS 3 Zrotation Yrotation Xrotation
			JOINT RightLeg
			{
				OFFSET -2.542530 -6.985550 0.000000
				CHANNELS 3 Zrotation Yrotation Xrotation
				JOINT RightFoot
				{
					OFFSET -2.568260 -7.056230 0.000000
					CHANNELS 3 Zrotation Yrotation Xrotation
					JOINT RightToeBase
					{
						OFFSET -0.164730 -0.452590 2.363150
						CHANNELS 3 Zrotation Yrotation Xrotation
						End Site
						{
							OFFSET 0.000000 0.000000 0.000000
						}
					}
				}
			}
		}
	}
	JOINT LowerBack
	{
		OFFSET 0.000000 0.000000 0.000000
		CHANNELS 3 Zrotation Yrotation Xrotation
		JOINT Spine
		{
			OFFSET 0.028270 2.035590 -0.193380
			CHANNELS 3 Zrotation Yrotation Xrotation
			JOINT Spine1
			{
				OFFSET 0.056720 2.048850 -0.042750
				CHANNELS 3 Zrotation Yrotation Xrotation
				JOINT Neck
				{
					OFFSET 0.000000 0.000000 0.000000
					CHANNELS 3 Zrotation Yrotation Xrotation
					JOINT Neck1
					{
						OFFSET -0.054170 1.746240 0.172020
						CHANNELS 3 Zrotation Yrotation Xrotation
						JOINT Head
						{
							OFFSET 0.104070 1.761360 -0.123970
							CHANNELS 3 Zrotation Yrotation Xrotation
							End Site
							{
								OFFSET 0.000000 0.000000 0.000000
							}
						}
					}
				}
				JOINT LeftShoulder
				{
					OFFSET 0.000000 0.000000 0.000000
					CHANNELS 3 Zrotation Yrotation Xrotation
					JOINT LeftArm
					{
						OFFSET 3.362410 1.200890 -0.311210
						CHANNELS 3 Zrotation Yrotation Xrotation
						JOINT LeftForeArm
						{
							OFFSET 4.983000 -0.000000 -0.000000
							CHANNELS 3 Zrotation Yrotation Xrotation
							JOINT LeftHand
							{
								OFFSET 3.483560 -0.000000 -0.000000
								CHANNELS 3 Zrotation Yrotation Xrotation
								JOINT LeftFingerBase
								{
									OFFSET 0.000000 0.000000 0.000000
									CHANNELS 3 Zrotation Yrotation Xrotation
									JOINT LeftHandIndex1
									{
										OFFSET 0.715260 -0.000000 -0.000000
										CHANNELS 3 Zrotation Yrotation Xrotation
										End Site
										{
											OFFSET 0.000000 0.000000 0.000000
										}
									}
								}
								JOINT LThumb
								{
									OFFSET 0.000000 0.000000 0.000000
									CHANNELS 3 Zrotation Yrotation Xrotation
									End Site
									{
										OFFSET 0.000000 0.000000 0.000000
									}
								}
							}
						}
					}
				}
				JOINT RightShoulder
				{
					OFFSET 0.000000 0.000000 0.000000
					CHANNELS 3 Zrotation Yrotation Xrotation
					JOINT RightArm
					{
						OFFSET -3.136600 1.374050 -0.404650
						CHANNELS 3 Zrotation Yrotation Xrotation
						JOINT RightForeArm
						{
							OFFSET -5.241900 -0.000000 -0.000000
							CHANNELS 3 Zrotation Yrotation Xrotation
							JOINT RightHand
							{
								OFFSET -3.444170 -0.000000 -0.000000
								CHANNELS 3 Zrotation Yrotation Xrotation
								JOINT RightFingerBase
								{
									OFFSET 0.000000 0.000000 0.000000
									CHANNELS 3 Zrotation Yrotation Xrotation
									JOINT RightHandIndex1
									{
										OFFSET -0.622530 -0.000000 -0.000000
										CHANNELS 3 Zrotation Yrotation Xrotation
										End Site
										{
											OFFSET 0.000000 0.000000 0.000000
										}
									}
								}
								JOINT RThumb
								{
									OFFSET 0.000000 0.000000 0.000000
									CHANNELS 3 Zrotation Yrotation Xrotation
									End Site
									{
										OFFSET 0.000000 0.000000 0.000000
									}
								}
							}
						}
					}
				}
			}
		}
	}
}
MOTION
Frames: 7
Frame Time: 0.008333
3.013838 17.119741 -1.296649 40.024018 -69.964242 -1.301444 -4.718727 -0.186751 11.480852 2.090524 -32.840933 -114.471852 -8.427817 -4.720256 -6.501062 -1.359735 -1.088927 9.736903 1.556499 0.000000 -45.186099 8.943919 2.457893 -3.308609 9.442144 -7.694647 -49.721111 2.963612 -0.855696 22.333058 -2.337270 -6.713921 -12.337494 -0.057900 0.000000 -47.746300 -12.918170 -2.148591 -1.519954 -3.511708 -1.539714 -3.271090 -5.408941 -1.629812 0.277940 9.202726 -8.668011 -12.287180 -2.477974 -0.096077 -1.732663 0.000000 0.000000 0.000000 0.233614 11.721372 3.188105 -51.422178 2.857277 -33.536354 -0.567979 -73.188284 -0.093375 24.461706 -2.582508 -0.623340 -0.304571 0.264326 0.000000 0.000000 0.000000 0.000000 0.000000 0.000000 0.000000 9.412915 -4.360819 1.984415 61.006257 0.623111 -31.469100 0.224735 72.946419 -0.117943 -24.486000 9.488154 -2.169578 0.247781 -0.393111 0.000000 0.000000 0.000000 0.000000 0.000000 0.000000 0.000000 
3.022320 17.128188 -1.295326 39.335906 -70.190922 -0.984612 -4.752853 -0.300810 11.382202 2.478976 -32.166064 -113.364533 -8.067687 -4.635171 -6.543533 -1.313032 -0.863593 10.162489 1.611600 0.000000 -45.020199 8.902248 2.397953 -3.347899 9.685076 -7.464372 -49.023093 2.950613 -0.782788 21.914911 -2.364622 -6.899151 -12.215707 -0.073700 -0.000000 -47.469400 -12.682644 -2.082623 -1.451314 -3.467314 -1.483692 -3.248785 -5.456826 -1.570931 0.291999 9.144586 -8.629112 -12.083214 -2.490282 -0.100278 -1.665007 0.000000 0.000000 0.000000 0.394527 11.561784 3.149516 -51.048762 2.575892 -33.566312 -0.570357 -72.991793 -0.095360 24.453945 -2.354185 -0.573459 -0.304977 0.266186 0.000000 0.000000 0.000000 0.000000 0.000000 0.000000 0.000000 9.411967 -4.374387 1.922106 61.201547 1.132431 -30.995639 0.219750 72.584780 -0.118425 -24.534130 9.520256 -2.180993 0.246669 -0.393419 0.000000 0.000000 0.000000 0.000000 0.000000 0.000000 0.000000 
3.029242 17.138678 -1.292638 38.636954 -70.495389 -0.752542 -4.797462 -0.408280 11.240162 2.651186 -31.458373 -111.881653 -7.700033 -4.544242 -6.618235 -1.258789 -0.627406 10.577570 1.665200 0.000000 -44.917900 8.864100 2.321007 -3.370308 9.950891 -7.208099 -48.180287 2.937373 -0.695821 21.400377 -2.382605 -7.064336 -12.049506 -0.095699 0.000000 -47.212900 -12.429916 -1.996871 -1.385565 -3.418383 -1.407649 -3.225732 -5.505073 -1.491641 0.312956 9.097721 -8.620465 -11.882808 -2.494815 -0.103879 -1.596610 0.000000 0.000000 0.000000 0.531051 11.449993 3.103506 -50.687386 2.287709 -33.525576 -0.572302 -72.856890 -0.096996 24.388879 -2.175481 -0.533370 -0.305560 0.268480 0.000000 0.000000 0.000000 0.000000 0.000000 0.000000 0.000000 9.382543 -4.391649 1.853786 61.443405 1.587940 -30.404506 0.219142 72.292313 -0.118337 -24.466150 9.596647 -2.191898 0.245274 -0.394525 0.000000 0.000000 0.000000 0.000000 0.000000 0.000000 0.000000 
3.033438 17.150658 -1.289313 37.993031 -70.860403 -0.653311 -4.849350 -0.501036 11.061875 2.583152 -30.748066 -110.044171 -7.342504 -4.453139 -6.739731 -1.192941 -0.348454 10.988096 1.732700 0.000001 -44.924700 8.837074 2.234343 -3.374307 10.220498 -6.966639 -47.232749 2.927367 -0.600773 20.820279 -2.384413 -7.174276 -11.854771 -0.120600 0.000000 -46.977100 -12.189345 -1.899580 -1.327994 -3.371712 -1.318610 -3.203953 -5.555287 -1.399262 0.336951 9.071475 -8.624326 -11.686922 -2.494151 -0.107089 -1.528153 0.000000 0.000000 0.000000 0.653314 11.382470 3.053103 -50.327613 2.011382 -33.424211 -0.573459 -72.799058 -0.098294 24.279758 -2.054063 -0.505074 -0.306459 0.271254 0.000000 0.000000 0.000000 0.000000 0.000000 0.000000 0.000000 9.339376 -4.395543 1.780509 61.732578 1.954776 -29.723304 0.223021 72.094628 -0.117679 -24.295778 9.717334 -2.202992 0.243580 -0.396224 0.000000 0.000000 0.000000 0.000000 0.000000 0.000000 0.000000 
3.035785 17.164196 -1.284627 37.345338 -71.286619 -0.633327 -4.915370 -0.581625 10.834163 2.225934 -30.043530 -107.876806 -7.009121 -4.347233 -6.835243 -1.124933 -0.078725 11.371133 1.793300 0.000001 -45.035400 8.814774 2.132985 -3.360419 10.501530 -6.714366 -46.152995 2.917805 -0.493572 20.144004 -2.376123 -7.260348 -11.617441 -0.151400 0.000000 -46.773900 -11.931077 -1.787889 -1.264318 -3.320855 -1.215473 -3.180858 -5.605435 -1.292353 0.362687 9.055566 -8.656534 -11.503859 -2.486280 -0.109580 -1.462538 0.000000 0.000000 0.000000 0.741042 11.358705 2.997754 -49.970799 1.735072 -33.276808 -0.573028 -72.823053 -0.099297 24.139886 -1.988108 -0.488569 -0.307566 0.274429 0.000000 0.000000 0.000000 0.000000 0.000000 0.000000 0.000000 9.265491 -4.404012 1.704397 62.064950 2.256675 -28.973769 0.230483 71.985143 -0.116596 -24.041184 9.885855 -2.216276 0.241701 -0.398693 0.000000 0.000000 0.000000 0.000000 0.000000 0.000000 0.000000 
3.035387 17.178760 -1.279048 36.746795 -71.757142 -0.731188 -4.991972 -0.646653 10.568231 1.593624 -29.339973 -105.414170 -6.706969 -4.232785 -6.927613 -1.052657 0.206090 11.749052 1.858900 -0.000000 -45.254800 8.803519 2.024468 -3.329545 10.778062 -6.489497 -44.982375 2.911698 -0.380950 19.410095 -2.352377 -7.292580 -11.355092 -0.184300 0.000001 -46.597000 -11.677760 -1.669884 -1.201893 -3.270876 -1.105380 -3.158791 -5.656974 -1.178394 0.387169 9.054455 -8.699534 -11.332065 -2.473926 -0.111616 -1.399441 0.000000 0.000000 0.000000 0.806621 11.371550 2.940055 -49.613644 1.480963 -33.094408 -0.570789 -72.933018 -0.100038 23.984483 -1.978849 -0.484158 -0.308961 0.277977 0.000000 0.000000 0.000000 0.000000 0.000000 0.000000 0.000000 9.173159 -4.402032 1.625789 62.438330 2.469589 -28.186694 0.240896 71.974865 -0.115131 -23.722486 10.095837 -2.231752 0.239624 -0.401702 0.000000 0.000000 0.000000 0.000000 0.000000 0.000000 0.000000 
3.032417 17.194163 -1.272246 36.181336 -72.267496 -0.926409 -5.081486 -0.698891 10.263518 0.699246 -28.613509 -102.694580 -6.438700 -4.105075 -6.990323 -0.981230 0.480462 12.122405 1.919600 0.000000 -45.544800 8.801478 1.909126 -3.282972 11.048043 -6.286399 -43.720748 2.907538 -0.263187 18.618178 -2.316172 -7.284375 -11.065131 -0.219600 0.000000 -46.457400 -11.418248 -1.547031 -1.136909 -3.219318 -0.990547 -3.137171 -5.709013 -1.059552 0.409693 9.061595 -8.756179 -11.174016 -2.457209 -0.113156 -1.339788 0.000000 0.000000 0.000000 0.846074 11.416808 2.880314 -49.261415 1.251834 -32.889581 -0.566334 -73.125000 -0.100565 23.827007 -2.019583 -0.490441 -0.310585 0.281791 0.000000 0.000000 0.000000 0.000000 0.000000 0.000000 0.000000 9.057854 -4.395988 1.545457 62.846396 2.607358 -27.386726 0.253120 72.053364 -0.113421 -23.359814 10.341099 -2.249121 0.237417 -0.405234 0.000000 0.000000 0.000000 0.000000 0.000000 0.000000 0.000000 
